<svg width="28" height="23" viewBox="0 0 28 23" fill="none" xmlns="http://www.w3.org/2000/svg">
<g id="&#208;&#161;&#208;&#179;&#209;&#128;&#209;&#131;&#208;&#191;&#208;&#191;&#208;&#184;&#209;&#128;&#208;&#190;&#208;&#178;&#208;&#176;&#209;&#130;&#209;&#140; 325">
<path id="&#208;&#154;&#208;&#190;&#208;&#189;&#209;&#130;&#209;&#131;&#209;&#128; 831" d="M13.9179 0.501242C17.6629 0.501242 21.408 0.502032 25.1531 0.500001C25.5249 0.499775 25.8824 0.559601 26.2106 0.734792C27.0511 1.18349 27.4744 1.89294 27.4406 2.84227C27.4019 3.93201 26.5519 4.8153 25.4673 4.93597C25.3787 4.94579 25.2891 4.95256 25.2001 4.95256C17.675 4.95335 10.15 4.95369 2.62492 4.95279C1.62367 4.95267 0.764882 4.32077 0.476473 3.38037C0.0724744 2.06283 0.944587 0.702508 2.31112 0.522464C2.43765 0.50587 2.56656 0.502145 2.69446 0.502032C6.43553 0.501017 10.1767 0.501242 13.9179 0.501242Z" fill="#232228"/>
<path id="&#208;&#154;&#208;&#190;&#208;&#189;&#209;&#130;&#209;&#131;&#209;&#128; 832" d="M13.902 22.9985C10.157 22.9985 6.41183 22.9973 2.6668 22.9999C2.20726 23.0002 1.78272 22.8923 1.39667 22.6433C0.651548 22.163 0.239874 21.2775 0.418789 20.3526C0.594205 19.4451 1.29372 18.7537 2.18943 18.5898C2.3338 18.5634 2.48235 18.5482 2.62898 18.5482C10.1502 18.5463 17.6714 18.5461 25.1926 18.5468C26.2588 18.5469 27.1424 19.2431 27.3881 20.2703C27.6773 21.4793 26.891 22.7096 25.6692 22.9501C25.4992 22.9835 25.3225 22.9961 25.1488 22.9964C23.4511 22.9998 21.7534 22.9985 20.0557 22.9985H13.902Z" fill="#232228"/>
<path id="&#208;&#154;&#208;&#190;&#208;&#189;&#209;&#130;&#209;&#131;&#209;&#128; 833" d="M13.9176 13.976C10.1609 13.976 6.40421 13.9754 2.64744 13.9766C2.13711 13.9769 1.66798 13.8431 1.2677 13.5268C0.524161 12.9393 0.228527 12.1631 0.443452 11.243C0.656118 10.3328 1.25935 9.77467 2.17458 9.57036C2.3395 9.53355 2.51356 9.52576 2.68345 9.52576C7.61349 9.52351 12.5434 9.52385 17.4735 9.52385C20.0452 9.52385 22.6171 9.52419 25.1888 9.52374C25.76 9.52362 26.2717 9.69679 26.6918 10.084C27.3693 10.7083 27.6085 11.4837 27.3517 12.3691C27.0963 13.2497 26.4804 13.7686 25.5819 13.9448C25.4385 13.973 25.2883 13.9747 25.1412 13.9747C21.4 13.9763 17.6588 13.976 13.9176 13.976Z" fill="#232228"/>
</g>
</svg>
