<svg width="19" height="20" viewBox="0 0 19 20" fill="none" xmlns="http://www.w3.org/2000/svg">
<g id="&#208;&#161;&#208;&#179;&#209;&#128;&#209;&#131;&#208;&#191;&#208;&#191;&#208;&#184;&#209;&#128;&#208;&#190;&#208;&#178;&#208;&#176;&#209;&#130;&#209;&#140; 8">
<path id="&#208;&#154;&#208;&#190;&#208;&#189;&#209;&#130;&#209;&#131;&#209;&#128; 36" d="M7.00324 0.0684357C7.46894 0.154929 7.94098 0.21394 8.39897 0.3337C9.32231 0.575171 10.1438 1.04669 10.8713 1.69148C11.9474 2.64514 12.6824 3.83876 13.0427 5.27927C13.4279 6.819 13.3381 8.33465 12.7517 9.79982C12.5354 10.3402 12.2351 10.8428 11.961 11.3866C12.1003 11.5386 12.2727 11.7203 12.5158 11.7737C12.6234 11.7973 12.7617 11.7858 12.8554 11.7312C13.0107 11.6407 13.1601 11.6272 13.2994 11.7133C13.4787 11.8242 13.6615 11.9457 13.8051 12.1017C15.244 13.6652 16.6759 15.2357 18.108 16.8063C18.5166 17.2545 18.5092 17.7493 18.0921 18.181C17.7182 18.5681 17.3421 18.9529 16.9646 19.336C16.5678 19.7388 16.0896 19.7359 15.7069 19.3179C14.251 17.7274 12.7964 16.1358 11.3485 14.5373C11.2151 14.3899 11.1179 14.1979 11.0323 14.0121C10.9652 13.8664 10.9862 13.7124 11.0727 13.5587C11.1249 13.4659 11.1562 13.316 11.1225 13.2214C11.0443 13.0014 10.9211 12.7994 10.8354 12.6284C10.3041 12.9455 9.82922 13.272 9.32108 13.5228C8.28869 14.0324 7.19344 14.2076 6.05718 14.1034C4.72048 13.9808 3.52887 13.4724 2.48508 12.5865C1.55171 11.7944 0.868105 10.801 0.44042 9.61505C-0.0080117 8.37161 -0.112152 7.09106 0.119536 5.78651C0.33587 4.5686 0.82866 3.48266 1.59245 2.54079C2.41834 1.52225 3.43046 0.789957 4.64596 0.405223C5.10838 0.25885 5.59537 0.199332 6.07116 0.100617C6.12924 0.0885402 6.18772 0.0790665 6.24601 0.0684357H7.00324ZM6.64012 2.2552C4.12532 2.24927 2.06633 4.42924 2.0636 7.10075C2.06081 9.77104 4.11154 11.9472 6.63431 11.9509C9.15211 11.9547 11.2052 9.78268 11.2126 7.10726C11.22 4.44594 9.16105 2.26113 6.64012 2.2552Z" fill="#707070"/>
</g>
</svg>
