<svg width="15" height="8" viewBox="0 0 15 8" fill="none" xmlns="http://www.w3.org/2000/svg">
<g id="&#208;&#161;&#208;&#179;&#209;&#128;&#209;&#131;&#208;&#191;&#208;&#191;&#208;&#184;&#209;&#128;&#208;&#190;&#208;&#178;&#208;&#176;&#209;&#130;&#209;&#140; 182">
<path id="&#208;&#154;&#208;&#190;&#208;&#189;&#209;&#130;&#209;&#131;&#209;&#128; 225" d="M13.7487 0.340941C13.5341 0.122517 13.2523 0.00144138 12.955 0H12.9497C12.6415 0 12.3436 0.128061 12.1105 0.360898C11.0938 1.37629 10.0777 2.39224 9.06155 3.4083L7.29221 5.17742L5.57132 3.45609C4.54229 2.4275 3.51337 1.39902 2.48478 0.370101C2.26635 0.151566 2.01445 0.0286058 1.73593 0.00465675C1.26704 -0.0351474 0.815998 0.227183 0.615204 0.658819C0.410307 1.09955 0.508431 1.59893 0.871325 1.96182C2.72992 3.8202 4.58885 5.67813 6.44834 7.53562C6.70091 7.78786 6.99684 7.91393 7.29254 7.91393C7.58769 7.91393 7.88262 7.78831 8.13431 7.53695C9.9939 5.6798 11.8527 3.82175 13.7113 1.96349C14.1805 1.49437 14.1966 0.796859 13.7487 0.340941Z" fill="#00C382"/>
</g>
</svg>
