<svg width="222" height="18" viewBox="0 0 222 18" fill="none" xmlns="http://www.w3.org/2000/svg">
<g id="&#208;&#161;&#208;&#179;&#209;&#128;&#209;&#131;&#208;&#191;&#208;&#191;&#208;&#184;&#209;&#128;&#208;&#190;&#208;&#178;&#208;&#176;&#209;&#130;&#209;&#140; 236">
<path id="&#208;&#154;&#208;&#190;&#208;&#189;&#209;&#130;&#209;&#131;&#209;&#128; 306" d="M86.6647 11.5509C87.2681 11.5509 87.7003 11.4363 87.9613 11.2072C88.2224 10.978 88.3529 10.6459 88.3529 10.2108C88.3529 9.81629 88.2035 9.48272 87.9048 9.21005C87.606 8.93739 87.1549 8.80105 86.5516 8.80105C86.0121 8.80105 85.5596 8.94319 85.1941 9.22746C84.8286 9.51172 84.6458 9.8569 84.6458 10.263H83.0185L83.0011 10.2108C82.9663 9.4044 83.2956 8.74739 83.9888 8.23977C84.6821 7.73215 85.5363 7.47834 86.5516 7.47834C87.6538 7.47834 88.5153 7.71475 89.1361 8.18756C89.7568 8.66037 90.0672 9.33478 90.0672 10.2108C90.0672 10.6343 89.9396 11.0215 89.6843 11.3725C89.4291 11.7235 89.0723 12.0005 88.614 12.2036C89.1419 12.395 89.5451 12.6764 89.8236 13.0477C90.102 13.4189 90.2413 13.8686 90.2413 14.3965C90.2413 15.2783 89.9033 15.9687 89.2275 16.4676C88.5516 16.9665 87.6596 17.2159 86.5516 17.2159C85.5305 17.2159 84.6516 16.9679 83.9149 16.4719C83.1781 15.9759 82.8242 15.258 82.8532 14.3182L82.8706 14.2659H84.4979C84.4979 14.7069 84.6893 15.0897 85.0722 15.4146C85.4551 15.7395 85.9482 15.9019 86.5516 15.9019C87.1723 15.9019 87.6553 15.7584 88.0005 15.4712C88.3457 15.184 88.5183 14.8258 88.5183 14.3965C88.5183 13.8918 88.3689 13.5234 88.0701 13.2913C87.7713 13.0593 87.3029 12.9432 86.6647 12.9432H85.0287V11.5509H86.6647ZM98.1253 17.0506C98.0673 16.7663 98.0224 16.5154 97.9904 16.2979C97.9585 16.0803 97.9397 15.8613 97.9339 15.6409C97.6148 16.0934 97.1986 16.4719 96.6851 16.7765C96.1717 17.0811 95.6191 17.2333 95.0274 17.2333C94.047 17.2333 93.3 16.9824 92.7866 16.4806C92.2732 15.9788 92.0165 15.287 92.0165 14.4052C92.0165 13.506 92.3805 12.8026 93.1086 12.2949C93.8367 11.7873 94.8243 11.5335 96.0716 11.5335H97.9339V10.6024C97.9339 10.0513 97.7656 9.6147 97.4292 9.29272C97.0927 8.97074 96.617 8.80976 96.002 8.80976C95.4509 8.80976 95.0027 8.95044 94.6576 9.23181C94.3124 9.51317 94.1398 9.8511 94.1398 10.2456H92.5038L92.4864 10.1934C92.4516 9.50882 92.775 8.88227 93.4567 8.31374C94.1383 7.7452 95.0187 7.46094 96.0977 7.46094C97.1652 7.46094 98.0238 7.73215 98.6736 8.27458C99.3233 8.81701 99.6482 9.59874 99.6482 10.6198V15.1536C99.6482 15.49 99.6656 15.8149 99.7004 16.1282C99.7352 16.4415 99.799 16.7489 99.8918 17.0506H98.1253ZM95.2798 15.7888C95.9005 15.7888 96.4603 15.6297 96.9592 15.3116C97.4582 14.9934 97.783 14.6289 97.9339 14.2181V12.6909H96.0107C95.3204 12.6909 94.7678 12.8644 94.353 13.2115C93.9382 13.5586 93.7308 13.9665 93.7308 14.4351C93.7308 14.8516 93.8613 15.1814 94.1224 15.4243C94.3834 15.6673 94.7692 15.7888 95.2798 15.7888ZM105.061 13.0564H103.938V17.0506H102.224V7.63498H103.938V11.6118H104.93L108.037 7.63498H110.047L110.073 7.67849L106.384 12.1426L110.369 17.0071L110.343 17.0506H108.237L105.061 13.0564ZM117.374 17.0506C117.316 16.7663 117.271 16.5154 117.239 16.2979C117.207 16.0803 117.189 15.8613 117.183 15.6409C116.864 16.0934 116.448 16.4719 115.934 16.7765C115.421 17.0811 114.868 17.2333 114.276 17.2333C113.296 17.2333 112.549 16.9824 112.036 16.4806C111.522 15.9788 111.265 15.287 111.265 14.4052C111.265 13.506 111.629 12.8026 112.358 12.2949C113.086 11.7873 114.073 11.5335 115.321 11.5335H117.183V10.6024C117.183 10.0513 117.015 9.6147 116.678 9.29272C116.342 8.97074 115.866 8.80976 115.251 8.80976C114.7 8.80976 114.252 8.95044 113.907 9.23181C113.561 9.51317 113.389 9.8511 113.389 10.2456H111.753L111.735 10.1934C111.701 9.50882 112.024 8.88227 112.706 8.31374C113.387 7.7452 114.268 7.46094 115.347 7.46094C116.414 7.46094 117.273 7.73215 117.923 8.27458C118.572 8.81701 118.897 9.59874 118.897 10.6198V15.1536C118.897 15.49 118.915 15.8149 118.949 16.1282C118.984 16.4415 119.048 16.7489 119.141 17.0506H117.374ZM114.529 15.7888C115.149 15.7888 115.709 15.6297 116.208 15.3116C116.707 14.9934 117.032 14.6289 117.183 14.2181V12.6909H115.26C114.569 12.6909 114.017 12.8644 113.602 13.2115C113.187 13.5586 112.98 13.9665 112.98 14.4351C112.98 14.8516 113.11 15.1814 113.371 15.4243C113.632 15.6673 114.018 15.7888 114.529 15.7888ZM124.762 11.5509C125.366 11.5509 125.798 11.4363 126.059 11.2072C126.32 10.978 126.451 10.6459 126.451 10.2108C126.451 9.81629 126.301 9.48272 126.002 9.21005C125.704 8.93739 125.253 8.80105 124.649 8.80105C124.11 8.80105 123.657 8.94319 123.292 9.22746C122.926 9.51172 122.743 9.8569 122.743 10.263H121.116L121.099 10.2108C121.064 9.4044 121.393 8.74739 122.086 8.23977C122.78 7.73215 123.634 7.47834 124.649 7.47834C125.751 7.47834 126.613 7.71475 127.234 8.18756C127.854 8.66037 128.165 9.33478 128.165 10.2108C128.165 10.6343 128.037 11.0215 127.782 11.3725C127.527 11.7235 127.17 12.0005 126.712 12.2036C127.24 12.395 127.643 12.6764 127.921 13.0477C128.2 13.4189 128.339 13.8686 128.339 14.3965C128.339 15.2783 128.001 15.9687 127.325 16.4676C126.649 16.9665 125.757 17.2159 124.649 17.2159C123.628 17.2159 122.749 16.9679 122.012 16.4719C121.276 15.9759 120.922 15.258 120.951 14.3182L120.968 14.2659H122.596C122.596 14.7069 122.787 15.0897 123.17 15.4146C123.553 15.7395 124.046 15.9019 124.649 15.9019C125.27 15.9019 125.753 15.7584 126.098 15.4712C126.443 15.184 126.616 14.8258 126.616 14.3965C126.616 13.8918 126.466 13.5234 126.168 13.2913C125.869 13.0593 125.4 12.9432 124.762 12.9432H123.126V11.5509H124.762ZM136.223 17.0506C136.165 16.7663 136.12 16.5154 136.088 16.2979C136.056 16.0803 136.037 15.8613 136.031 15.6409C135.712 16.0934 135.296 16.4719 134.783 16.7765C134.269 17.0811 133.717 17.2333 133.125 17.2333C132.145 17.2333 131.398 16.9824 130.884 16.4806C130.371 15.9788 130.114 15.287 130.114 14.4052C130.114 13.506 130.478 12.8026 131.206 12.2949C131.934 11.7873 132.922 11.5335 134.169 11.5335H136.031V10.6024C136.031 10.0513 135.863 9.6147 135.527 9.29272C135.19 8.97074 134.715 8.80976 134.1 8.80976C133.549 8.80976 133.1 8.95044 132.755 9.23181C132.41 9.51317 132.237 9.8511 132.237 10.2456H130.601L130.584 10.1934C130.549 9.50882 130.873 8.88227 131.554 8.31374C132.236 7.7452 133.116 7.46094 134.195 7.46094C135.263 7.46094 136.121 7.73215 136.771 8.27458C137.421 8.81701 137.746 9.59874 137.746 10.6198V15.1536C137.746 15.49 137.763 15.8149 137.798 16.1282C137.833 16.4415 137.897 16.7489 137.989 17.0506H136.223ZM133.377 15.7888C133.998 15.7888 134.558 15.6297 135.057 15.3116C135.556 14.9934 135.881 14.6289 136.031 14.2181V12.6909H134.108C133.418 12.6909 132.865 12.8644 132.451 13.2115C132.036 13.5586 131.828 13.9665 131.828 14.4351C131.828 14.8516 131.959 15.1814 132.22 15.4243C132.481 15.6673 132.867 15.7888 133.377 15.7888ZM147.353 8.9838H144.246V17.0506H142.532V8.9838H139.469V7.63498H147.353V8.9838ZM151.016 11.2202H153.357C154.471 11.2202 155.337 11.4871 155.955 12.0208C156.573 12.5545 156.882 13.2478 156.882 14.1006C156.882 14.9592 156.57 15.6655 155.946 16.2196C155.323 16.7736 154.46 17.0506 153.357 17.0506H149.302V7.63498H151.016V11.2202ZM151.016 12.569V15.7018H153.357C153.972 15.7018 154.426 15.5547 154.719 15.2604C155.012 14.9662 155.159 14.5998 155.159 14.1614C155.159 13.7344 155.011 13.3623 154.715 13.045C154.419 12.7277 153.966 12.569 153.357 12.569H151.016ZM166.706 11.5509C167.31 11.5509 167.742 11.4363 168.003 11.2072C168.264 10.978 168.394 10.6459 168.394 10.2108C168.394 9.81629 168.245 9.48272 167.946 9.21005C167.648 8.93739 167.196 8.80105 166.593 8.80105C166.054 8.80105 165.601 8.94319 165.236 9.22746C164.87 9.51172 164.687 9.8569 164.687 10.263H163.06L163.043 10.2108C163.008 9.4044 163.337 8.74739 164.03 8.23977C164.724 7.73215 165.578 7.47834 166.593 7.47834C167.695 7.47834 168.557 7.71475 169.178 8.18756C169.798 8.66037 170.109 9.33478 170.109 10.2108C170.109 10.6343 169.981 11.0215 169.726 11.3725C169.471 11.7235 169.114 12.0005 168.656 12.2036C169.183 12.395 169.587 12.6764 169.865 13.0477C170.144 13.4189 170.283 13.8686 170.283 14.3965C170.283 15.2783 169.945 15.9687 169.269 16.4676C168.593 16.9665 167.701 17.2159 166.593 17.2159C165.572 17.2159 164.693 16.9679 163.956 16.4719C163.22 15.9759 162.866 15.258 162.895 14.3182L162.912 14.2659H164.539C164.539 14.7069 164.731 15.0897 165.114 15.4146C165.497 15.7395 165.99 15.9019 166.593 15.9019C167.214 15.9019 167.697 15.7584 168.042 15.4712C168.387 15.184 168.56 14.8258 168.56 14.3965C168.56 13.8918 168.41 13.5234 168.112 13.2913C167.813 13.0593 167.344 12.9432 166.706 12.9432H165.07V11.5509H166.706ZM172.389 17.0506V7.63498H176.104C177.346 7.63498 178.309 7.85108 178.994 8.28328C179.678 8.71548 180.02 9.36379 180.02 10.2282C180.02 10.6691 179.887 11.0621 179.62 11.4073C179.353 11.7525 178.976 12.015 178.489 12.1949C179.075 12.3399 179.532 12.6111 179.859 13.0085C180.187 13.4059 180.351 13.8599 180.351 14.3704C180.351 15.2522 180.031 15.9193 179.39 16.3718C178.748 16.8244 177.854 17.0506 176.705 17.0506H172.389ZM174.103 12.9258V15.7279H176.705C177.337 15.7279 177.816 15.6075 178.141 15.3668C178.466 15.126 178.628 14.7794 178.628 14.3269C178.628 13.8802 178.466 13.535 178.141 13.2913C177.816 13.0477 177.337 12.9258 176.705 12.9258H174.103ZM174.103 11.6118H176.113C176.838 11.6118 177.385 11.5052 177.754 11.292C178.122 11.0787 178.306 10.756 178.306 10.3238C178.306 9.87997 178.12 9.54569 177.749 9.32093C177.378 9.09618 176.83 8.9838 176.104 8.9838H174.103V11.6118ZM182.109 12.2558C182.109 10.8634 182.486 9.71622 183.24 8.81411C183.994 7.91199 185.018 7.46094 186.312 7.46094C187.617 7.46094 188.649 7.91054 189.406 8.80976C190.163 9.70897 190.541 10.8576 190.541 12.2558V12.4472C190.541 13.8511 190.164 14.9998 189.41 15.8932C188.656 16.7866 187.629 17.2333 186.329 17.2333C185.03 17.2333 184.002 16.7852 183.245 15.8889C182.487 14.9926 182.109 13.8453 182.109 12.4472V12.2558ZM183.823 12.4427C183.823 13.4394 184.034 14.2622 184.454 14.9111C184.875 15.5601 185.5 15.8845 186.329 15.8845C187.147 15.8845 187.768 15.5601 188.192 14.9111C188.615 14.2622 188.827 13.4394 188.827 12.4427V12.2516C188.827 11.2665 188.614 10.4466 188.187 9.79187C187.761 9.13713 187.136 8.80976 186.312 8.80976C185.494 8.80976 184.875 9.13713 184.454 9.79187C184.034 10.4466 183.823 11.2665 183.823 12.2516V12.4427ZM200.261 17.0506H198.547V13.0564H194.353V17.0506H192.638V7.63498H194.353V11.7075H198.547V7.63498H200.261V17.0506ZM202.367 12.2558C202.367 10.8634 202.744 9.71622 203.499 8.81411C204.253 7.91199 205.277 7.46094 206.57 7.46094C207.876 7.46094 208.907 7.91054 209.664 8.80976C210.421 9.70897 210.8 10.8576 210.8 12.2558V12.4472C210.8 13.8511 210.423 14.9998 209.668 15.8932C208.914 16.7866 207.887 17.2333 206.588 17.2333C205.288 17.2333 204.26 16.7852 203.503 15.8889C202.746 14.9926 202.367 13.8453 202.367 12.4472V12.2558ZM204.082 12.4427C204.082 13.4394 204.292 14.2622 204.713 14.9111C205.133 15.5601 205.758 15.8845 206.588 15.8845C207.406 15.8845 208.027 15.5601 208.45 14.9111C208.874 14.2622 209.085 13.4394 209.085 12.4427V12.2516C209.085 11.2665 208.872 10.4466 208.446 9.79187C208.019 9.13713 207.394 8.80976 206.57 8.80976C205.752 8.80976 205.133 9.13713 204.713 9.79187C204.292 10.4466 204.082 11.2665 204.082 12.2516V12.4427ZM215.821 13.0564H214.698V17.0506H212.984V7.63498H214.698V11.6118H215.69L218.797 7.63498H220.807L220.833 7.67849L217.143 12.1426L221.129 17.0071L221.103 17.0506H218.997L215.821 13.0564Z" fill="#007850"/>
<g id="&#208;&#161;&#208;&#179;&#209;&#128;&#209;&#131;&#208;&#191;&#208;&#191;&#208;&#184;&#209;&#128;&#208;&#190;&#208;&#178;&#208;&#176;&#209;&#130;&#209;&#140; 118">
<path id="&#208;&#154;&#208;&#190;&#208;&#189;&#209;&#130;&#209;&#131;&#209;&#128; 86 - &#208;&#160;&#208;&#176;&#208;&#188;&#208;&#186;&#208;&#176;" d="M1.49962 16.6201H0.625977V0.894531H1.49962V16.6201Z" fill="#232228"/>
<path id="&#208;&#154;&#208;&#190;&#208;&#189;&#209;&#130;&#209;&#131;&#209;&#128; 85 - &#208;&#160;&#208;&#176;&#208;&#188;&#208;&#186;&#208;&#176;" d="M78.9175 17.0572H0.625977V16.1836H78.9175V17.0572Z" fill="#232228"/>
</g>
</g>
</svg>
