<svg width="18" height="13" viewBox="0 0 18 13" fill="none" xmlns="http://www.w3.org/2000/svg">
<g id="&#208;&#161;&#208;&#179;&#209;&#128;&#209;&#131;&#208;&#191;&#208;&#191;&#208;&#184;&#209;&#128;&#208;&#190;&#208;&#178;&#208;&#176;&#209;&#130;&#209;&#140; 61">
<path id="&#208;&#154;&#208;&#190;&#208;&#189;&#209;&#130;&#209;&#131;&#209;&#128; 88" d="M8.66142 2.24122C6.12504 2.24122 3.58866 2.24104 1.05228 2.24141C0.520299 2.24141 0.139604 1.89174 0.135773 1.39723C0.131848 0.899353 0.505535 0.538469 1.03705 0.538282C4.25913 0.536974 7.48121 0.538188 10.7033 0.538188C12.554 0.538282 14.4046 0.539029 16.2553 0.536226C16.6362 0.535665 16.9315 0.675459 17.0987 1.02653C17.246 1.33602 17.2103 1.63766 17.0039 1.90977C16.8221 2.14965 16.5697 2.24365 16.2705 2.24328C14.0603 2.2402 11.8501 2.24066 9.64007 2.24001C9.31385 2.23992 8.98763 2.24001 8.66142 2.24001V2.24122Z" fill="white"/>
<path id="&#208;&#154;&#208;&#190;&#208;&#189;&#209;&#130;&#209;&#131;&#209;&#128; 89" d="M8.63879 7.35174C6.10913 7.35185 3.57958 7.35174 1.04993 7.35193C0.519441 7.35202 0.138466 6.99955 0.135756 6.50475C0.133139 6.00931 0.509256 5.64889 1.04012 5.64871C4.79455 5.64777 8.54899 5.64871 12.3035 5.6488C13.6216 5.64889 14.9396 5.65068 16.2576 5.64628C16.6232 5.64507 16.9095 5.77944 17.0838 6.10293C17.238 6.38898 17.22 6.6823 17.0472 6.95703C16.8777 7.22625 16.6239 7.35248 16.3074 7.35248C14.6899 7.35259 13.0723 7.35193 11.4547 7.35164C10.516 7.35155 9.57744 7.35164 8.63879 7.35174Z" fill="white"/>
<path id="&#208;&#154;&#208;&#190;&#208;&#189;&#209;&#130;&#209;&#131;&#209;&#128; 90" d="M8.63848 12.4634C6.20125 12.4634 3.76402 12.4635 1.32669 12.4633C1.2268 12.4633 1.1269 12.4633 1.02711 12.4607C0.499328 12.4468 0.138069 12.1008 0.137696 11.6102C0.137322 11.1208 0.495123 10.7689 1.02767 10.7624C1.83326 10.7528 2.63913 10.7582 3.4449 10.7581C6.3816 10.7581 9.31829 10.7585 12.255 10.7585C13.5669 10.7586 14.8787 10.7565 16.1906 10.7597C16.3288 10.7601 16.4736 10.7691 16.6038 10.8102C17.0066 10.9374 17.2334 11.3264 17.1702 11.7501C17.112 12.1413 16.7827 12.4485 16.3697 12.4553C15.5842 12.4683 14.7982 12.4629 14.0125 12.4631C12.2212 12.4639 10.4298 12.4634 8.63848 12.4634Z" fill="white"/>
</g>
</svg>
