<svg width="37" height="31" viewBox="0 0 37 31" fill="none" xmlns="http://www.w3.org/2000/svg">
<g id="&#208;&#161;&#208;&#179;&#209;&#128;&#209;&#131;&#208;&#191;&#208;&#191;&#208;&#184;&#209;&#128;&#208;&#190;&#208;&#178;&#208;&#176;&#209;&#130;&#209;&#140; 325">
<path id="&#208;&#154;&#208;&#190;&#208;&#189;&#209;&#130;&#209;&#131;&#209;&#128; 831" d="M18.0572 0.280953C23.0506 0.280953 28.044 0.282007 33.0375 0.279298C33.5333 0.278997 34.01 0.358766 34.4475 0.592353C35.5682 1.19062 36.1326 2.13656 36.0876 3.40232C36.0359 4.85532 34.9026 6.03304 33.4564 6.19393C33.3382 6.20702 33.2189 6.21605 33.1001 6.21605C23.0667 6.21711 13.0333 6.21756 2.9999 6.21635C1.6649 6.2162 0.519843 5.37367 0.135297 4.11979C-0.403368 2.36307 0.759451 0.549308 2.58149 0.309249C2.75021 0.287124 2.92209 0.282157 3.09261 0.282007C8.08072 0.280652 13.069 0.280953 18.0572 0.280953Z" fill="white"/>
<path id="&#208;&#154;&#208;&#190;&#208;&#189;&#209;&#130;&#209;&#131;&#209;&#128; 832" d="M18.0363 30.2772C13.0429 30.2772 8.04936 30.2758 3.05598 30.2793C2.44327 30.2795 1.87721 30.1357 1.36247 29.8038C0.368976 29.1634 -0.179924 27.9826 0.0586298 26.7494C0.292518 25.5395 1.22521 24.6176 2.41949 24.399C2.61198 24.3639 2.81005 24.3435 3.00556 24.3435C13.0339 24.341 23.0622 24.3408 33.0905 24.3418C34.512 24.3419 35.6902 25.2701 36.0178 26.6397C36.4034 28.2518 35.355 29.8921 33.7259 30.2127C33.4992 30.2573 33.2637 30.2741 33.0321 30.2745C30.7684 30.2791 28.5048 30.2772 26.2412 30.2772H18.0363Z" fill="white"/>
<path id="&#208;&#154;&#208;&#190;&#208;&#189;&#209;&#130;&#209;&#131;&#209;&#128; 833" d="M18.0569 18.2473C13.0478 18.2473 8.03895 18.2465 3.02992 18.2482C2.34948 18.2485 1.72397 18.0701 1.19027 17.6484C0.198882 16.865 -0.195297 15.8301 0.0912688 14.6034C0.374824 13.3897 1.17913 12.6456 2.39945 12.3731C2.61934 12.3241 2.85142 12.3137 3.07793 12.3137C9.65134 12.3107 16.2246 12.3111 22.798 12.3111C26.227 12.3111 29.6562 12.3116 33.0852 12.311C33.8467 12.3108 34.529 12.5417 35.0892 13.0579C35.9925 13.8904 36.3114 14.9242 35.969 16.1048C35.6284 17.2789 34.8073 17.9708 33.6092 18.2057C33.4181 18.2434 33.2178 18.2456 33.0216 18.2456C28.0334 18.2477 23.0451 18.2473 18.0569 18.2473Z" fill="white"/>
</g>
</svg>
